<?xml version="1.0" encoding="UTF-8" standalone="no"?>
<!DOCTYPE svg PUBLIC "-//W3C//DTD SVG 1.1//EN"
 "http://www.w3.org/Graphics/SVG/1.1/DTD/svg11.dtd">
<!-- Generated by graphviz version 2.43.0 (0)
 -->
<!-- Title: DUP_NUM Pages: 1 -->
<svg width="246pt" height="220pt"
 viewBox="0.00 0.00 246.00 220.00" xmlns="http://www.w3.org/2000/svg" xmlns:xlink="http://www.w3.org/1999/xlink">
<g id="graph0" class="graph" transform="scale(1 1) rotate(0) translate(4 216)">
<title>DUP_NUM</title>
<polygon fill="white" stroke="transparent" points="-4,4 -4,-216 242,-216 242,4 -4,4"/>
<g id="clust1" class="cluster">
<title>cluster_before_DUP_NUM</title>
<polygon fill="white" stroke="black" points="8,-8 8,-204 101,-204 101,-8 8,-8"/>
<text text-anchor="middle" x="54.5" y="-190.4" font-family="Times,serif" font-size="12.00">Before</text>
</g>
<g id="clust2" class="cluster">
<title>cluster_after_DUP_NUM</title>
<polygon fill="white" stroke="black" points="109,-73 109,-204 230,-204 230,-73 109,-73"/>
<text text-anchor="middle" x="169.5" y="-190.4" font-family="Times,serif" font-size="12.00">After</text>
</g>
<!-- a13_1 -->
<g id="node1" class="node">
<title>a13_1</title>
<text text-anchor="middle" x="31" y="-156.8" font-family="Times,serif" font-size="14.00">a</text>
</g>
<!-- dup13 -->
<g id="node3" class="node">
<title>dup13</title>
<polygon fill="none" stroke="black" points="54,-81 68.5,-102.75 39.5,-102.75 54,-81"/>
<text text-anchor="middle" x="54" y="-91.8" font-family="Times,serif" font-size="14.00">D</text>
</g>
<!-- a13_1&#45;&#45;dup13 -->
<g id="edge1" class="edge">
<title>a13_1:s&#45;&#45;dup13:nw</title>
<path fill="none" stroke="black" d="M31,-146C31,-126.39 32.13,-118.37 46,-104.5"/>
</g>
<!-- b13_1 -->
<g id="node2" class="node">
<title>b13_1</title>
<text text-anchor="middle" x="78" y="-156.8" font-family="Times,serif" font-size="14.00">b</text>
</g>
<!-- b13_1&#45;&#45;dup13 -->
<g id="edge2" class="edge">
<title>b13_1:s&#45;&#45;dup13:ne</title>
<path fill="none" stroke="black" d="M78,-146C78,-126.23 75.98,-118.48 62,-104.5"/>
</g>
<!-- num13_1 -->
<g id="node4" class="node">
<title>num13_1</title>
<text text-anchor="middle" x="54" y="-26.8" font-family="Times,serif" font-size="14.00">#</text>
</g>
<!-- dup13&#45;&#45;num13_1 -->
<g id="edge3" class="edge">
<title>dup13:s&#45;&#45;num13_1:n</title>
<path fill="none" stroke="black" d="M54,-79.5C54,-64.17 54,-60.33 54,-45"/>
</g>
<!-- a13_2 -->
<g id="node5" class="node">
<title>a13_2</title>
<text text-anchor="middle" x="200" y="-156.8" font-family="Times,serif" font-size="14.00">a</text>
</g>
<!-- num13_2 -->
<g id="node7" class="node">
<title>num13_2</title>
<text text-anchor="middle" x="200" y="-91.8" font-family="Times,serif" font-size="14.00">#</text>
</g>
<!-- a13_2&#45;&#45;num13_2 -->
<g id="edge4" class="edge">
<title>a13_2:s&#45;&#45;num13_2:n</title>
<path fill="none" stroke="black" d="M200,-146C200,-130 200,-126 200,-110"/>
</g>
<!-- b13_2 -->
<g id="node6" class="node">
<title>b13_2</title>
<text text-anchor="middle" x="139" y="-156.8" font-family="Times,serif" font-size="14.00">b</text>
</g>
<!-- num13_3 -->
<g id="node8" class="node">
<title>num13_3</title>
<text text-anchor="middle" x="139" y="-91.8" font-family="Times,serif" font-size="14.00">#</text>
</g>
<!-- b13_2&#45;&#45;num13_3 -->
<g id="edge5" class="edge">
<title>b13_2:s&#45;&#45;num13_3:n</title>
<path fill="none" stroke="black" d="M139,-146C139,-130 139,-126 139,-110"/>
</g>
</g>
</svg>
