<?xml version="1.0" encoding="UTF-8" standalone="no"?>
<!DOCTYPE svg PUBLIC "-//W3C//DTD SVG 1.1//EN"
 "http://www.w3.org/Graphics/SVG/1.1/DTD/svg11.dtd">
<!-- Generated by graphviz version 2.43.0 (0)
 -->
<!-- Title: DUP_SUP2 Pages: 1 -->
<svg width="312pt" height="285pt"
 viewBox="0.00 0.00 312.00 285.00" xmlns="http://www.w3.org/2000/svg" xmlns:xlink="http://www.w3.org/1999/xlink">
<g id="graph0" class="graph" transform="scale(1 1) rotate(0) translate(4 281)">
<title>DUP_SUP2</title>
<polygon fill="white" stroke="transparent" points="-4,4 -4,-281 308,-281 308,4 -4,4"/>
<g id="clust1" class="cluster">
<title>cluster_before_DUP_SUP2</title>
<polygon fill="white" stroke="black" points="8,-8 8,-269 101,-269 101,-8 8,-8"/>
<text text-anchor="middle" x="54.5" y="-255.4" font-family="Times,serif" font-size="12.00">Before</text>
</g>
<g id="clust2" class="cluster">
<title>cluster_after_DUP_SUP2</title>
<polygon fill="white" stroke="black" points="109,-8 109,-269 296,-269 296,-8 109,-8"/>
<text text-anchor="middle" x="202.5" y="-255.4" font-family="Times,serif" font-size="12.00">After</text>
</g>
<!-- a16_1 -->
<g id="node1" class="node">
<title>a16_1</title>
<text text-anchor="middle" x="31" y="-221.8" font-family="Times,serif" font-size="14.00">a</text>
</g>
<!-- dup16_1 -->
<g id="node3" class="node">
<title>dup16_1</title>
<polygon fill="none" stroke="black" points="54,-146 68.5,-167.75 39.5,-167.75 54,-146"/>
<text text-anchor="middle" x="54" y="-156.8" font-family="Times,serif" font-size="14.00">D</text>
<text text-anchor="middle" x="32.5" y="-178.8" font-family="Times,serif" font-size="14.00">m</text>
</g>
<!-- a16_1&#45;&#45;dup16_1 -->
<g id="edge1" class="edge">
<title>a16_1:s&#45;&#45;dup16_1:nw</title>
<path fill="none" stroke="black" d="M31,-211C31,-191.39 32.13,-183.37 46,-169.5"/>
</g>
<!-- b16_1 -->
<g id="node2" class="node">
<title>b16_1</title>
<text text-anchor="middle" x="78" y="-221.8" font-family="Times,serif" font-size="14.00">b</text>
</g>
<!-- b16_1&#45;&#45;dup16_1 -->
<g id="edge2" class="edge">
<title>b16_1:s&#45;&#45;dup16_1:ne</title>
<path fill="none" stroke="black" d="M78,-211C78,-191.23 75.98,-183.48 62,-169.5"/>
</g>
<!-- sup16_1 -->
<g id="node4" class="node">
<title>sup16_1</title>
<polygon fill="none" stroke="black" points="54,-110 39.5,-88.25 68.5,-88.25 54,-110"/>
<text text-anchor="middle" x="54" y="-91.8" font-family="Times,serif" font-size="14.00">S</text>
<text text-anchor="middle" x="34.5" y="-113.8" font-family="Times,serif" font-size="14.00">n</text>
</g>
<!-- dup16_1&#45;&#45;sup16_1 -->
<g id="edge3" class="edge">
<title>dup16_1:s&#45;&#45;sup16_1:n</title>
<path fill="none" stroke="black" d="M54,-146C54,-130 54,-126 54,-110"/>
</g>
<!-- x16_1 -->
<g id="node5" class="node">
<title>x16_1</title>
<text text-anchor="middle" x="31" y="-26.8" font-family="Times,serif" font-size="14.00">x</text>
</g>
<!-- sup16_1&#45;&#45;x16_1 -->
<g id="edge4" class="edge">
<title>sup16_1:sw&#45;&#45;x16_1:n</title>
<path fill="none" stroke="black" d="M46,-86.5C32.13,-72.63 31,-64.61 31,-45"/>
</g>
<!-- y16_1 -->
<g id="node6" class="node">
<title>y16_1</title>
<text text-anchor="middle" x="78" y="-26.8" font-family="Times,serif" font-size="14.00">y</text>
</g>
<!-- sup16_1&#45;&#45;y16_1 -->
<g id="edge5" class="edge">
<title>sup16_1:se&#45;&#45;y16_1:n</title>
<path fill="none" stroke="black" d="M62,-86.5C75.98,-72.52 78,-64.77 78,-45"/>
</g>
<!-- a16_2 -->
<g id="node7" class="node">
<title>a16_2</title>
<text text-anchor="middle" x="226" y="-221.8" font-family="Times,serif" font-size="14.00">a</text>
</g>
<!-- sup16_2 -->
<g id="node9" class="node">
<title>sup16_2</title>
<polygon fill="none" stroke="black" points="226,-175 211.5,-153.25 240.5,-153.25 226,-175"/>
<text text-anchor="middle" x="226" y="-156.8" font-family="Times,serif" font-size="14.00">S</text>
<text text-anchor="middle" x="206.5" y="-178.8" font-family="Times,serif" font-size="14.00">n</text>
</g>
<!-- a16_2&#45;&#45;sup16_2 -->
<g id="edge6" class="edge">
<title>a16_2:s&#45;&#45;sup16_2:n</title>
<path fill="none" stroke="black" d="M226,-211C226,-195 226,-191 226,-175"/>
</g>
<!-- b16_2 -->
<g id="node8" class="node">
<title>b16_2</title>
<text text-anchor="middle" x="179" y="-221.8" font-family="Times,serif" font-size="14.00">b</text>
</g>
<!-- sup16_3 -->
<g id="node10" class="node">
<title>sup16_3</title>
<polygon fill="none" stroke="black" points="179,-175 164.5,-153.25 193.5,-153.25 179,-175"/>
<text text-anchor="middle" x="179" y="-156.8" font-family="Times,serif" font-size="14.00">S</text>
<text text-anchor="middle" x="159.5" y="-178.8" font-family="Times,serif" font-size="14.00">n</text>
</g>
<!-- b16_2&#45;&#45;sup16_3 -->
<g id="edge7" class="edge">
<title>b16_2:s&#45;&#45;sup16_3:n</title>
<path fill="none" stroke="black" d="M179,-211C179,-195 179,-191 179,-175"/>
</g>
<!-- laz16_2 -->
<g id="node13" class="node">
<title>laz16_2</title>
<polygon fill="none" stroke="black" points="171,-110 156.5,-88.25 185.5,-88.25 171,-110"/>
<text text-anchor="middle" x="171" y="-91.8" font-family="Times,serif" font-size="14.00">Z</text>
</g>
<!-- sup16_2&#45;&#45;laz16_2 -->
<g id="edge10" class="edge">
<title>sup16_2:sw&#45;&#45;laz16_2:n</title>
<path fill="none" stroke="black" d="M218,-151.5C198.3,-131.8 171,-137.87 171,-110"/>
</g>
<!-- laz16_3 -->
<g id="node14" class="node">
<title>laz16_3</title>
<polygon fill="none" stroke="black" points="234,-110 219.5,-88.25 248.5,-88.25 234,-110"/>
<text text-anchor="middle" x="234" y="-91.8" font-family="Times,serif" font-size="14.00">Z</text>
</g>
<!-- sup16_2&#45;&#45;laz16_3 -->
<g id="edge14" class="edge">
<title>sup16_2:se&#45;&#45;laz16_3:n</title>
<path fill="none" stroke="black" d="M234,-151.5C247.04,-138.46 234,-128.44 234,-110"/>
</g>
<!-- sup16_3&#45;&#45;laz16_2 -->
<g id="edge11" class="edge">
<title>sup16_3:sw&#45;&#45;laz16_2:n</title>
<path fill="none" stroke="black" d="M171,-151.5C157.96,-138.46 171,-128.44 171,-110"/>
</g>
<!-- sup16_3&#45;&#45;laz16_3 -->
<g id="edge15" class="edge">
<title>sup16_3:se&#45;&#45;laz16_3:n</title>
<path fill="none" stroke="black" d="M187,-151.5C206.7,-131.8 234,-137.87 234,-110"/>
</g>
<!-- dup16_2 -->
<g id="node11" class="node">
<title>dup16_2</title>
<polygon fill="none" stroke="black" points="132,-45 117.5,-23.25 146.5,-23.25 132,-45"/>
<text text-anchor="middle" x="132" y="-26.8" font-family="Times,serif" font-size="14.00">D</text>
<text text-anchor="middle" x="110.5" y="-48.8" font-family="Times,serif" font-size="14.00">m</text>
</g>
<!-- dup16_3 -->
<g id="node12" class="node">
<title>dup16_3</title>
<polygon fill="none" stroke="black" points="226,-45 211.5,-23.25 240.5,-23.25 226,-45"/>
<text text-anchor="middle" x="226" y="-26.8" font-family="Times,serif" font-size="14.00">D</text>
<text text-anchor="middle" x="204.5" y="-48.8" font-family="Times,serif" font-size="14.00">m</text>
</g>
<!-- laz16_2&#45;&#45;dup16_2 -->
<g id="edge9" class="edge">
<title>laz16_2:sw&#45;&#45;dup16_2:n</title>
<path fill="none" stroke="black" d="M163,-86.5C146.72,-70.22 132,-68.02 132,-45"/>
</g>
<!-- x16_2 -->
<g id="node15" class="node">
<title>x16_2</title>
<text text-anchor="middle" x="179" y="-26.8" font-family="Times,serif" font-size="14.00">x</text>
</g>
<!-- laz16_2&#45;&#45;x16_2 -->
<g id="edge8" class="edge">
<title>laz16_2:se&#45;&#45;x16_2:n</title>
<path fill="none" stroke="black" d="M179,-86.5C192.04,-73.46 179,-63.44 179,-45"/>
</g>
<!-- laz16_3&#45;&#45;dup16_3 -->
<g id="edge13" class="edge">
<title>laz16_3:sw&#45;&#45;dup16_3:n</title>
<path fill="none" stroke="black" d="M226,-86.5C212.96,-73.46 226,-63.44 226,-45"/>
</g>
<!-- y16_2 -->
<g id="node16" class="node">
<title>y16_2</title>
<text text-anchor="middle" x="273" y="-26.8" font-family="Times,serif" font-size="14.00">y</text>
</g>
<!-- laz16_3&#45;&#45;y16_2 -->
<g id="edge12" class="edge">
<title>laz16_3:se&#45;&#45;y16_2:n</title>
<path fill="none" stroke="black" d="M242,-86.5C258.28,-70.22 273,-68.02 273,-45"/>
</g>
</g>
</svg>
